<?xml version="1.0" encoding="UTF-8" standalone="no"?>
<svg
   width="980"
   height="551"
   viewBox="0 0 980 551"
   fill="none"
   version="1.1"
   id="svg3"
   sodipodi:docname="bg-section.svg"
   xml:space="preserve"
   inkscape:version="1.3 (0e150ed6c4, 2023-07-21)"
   xmlns:inkscape="http://www.inkscape.org/namespaces/inkscape"
   xmlns:sodipodi="http://sodipodi.sourceforge.net/DTD/sodipodi-0.dtd"
   xmlns="http://www.w3.org/2000/svg"
   xmlns:svg="http://www.w3.org/2000/svg"><sodipodi:namedview
     id="namedview3"
     pagecolor="#ffffff"
     bordercolor="#666666"
     borderopacity="1.0"
     inkscape:showpageshadow="2"
     inkscape:pageopacity="0.0"
     inkscape:pagecheckerboard="0"
     inkscape:deskcolor="#d1d1d1"
     inkscape:zoom="0.69438776"
     inkscape:cx="746.70095"
     inkscape:cy="321.14622"
     inkscape:window-width="1920"
     inkscape:window-height="1008"
     inkscape:window-x="0"
     inkscape:window-y="0"
     inkscape:window-maximized="1"
     inkscape:current-layer="svg3" /><defs
     id="defs3"><clipPath
       clipPathUnits="userSpaceOnUse"
       id="clipPath5"><g
         id="g6"><rect
           width="980"
           height="551"
           fill="#ffffff"
           id="rect5"
           x="0"
           y="0" /></g></clipPath><clipPath
       clipPathUnits="userSpaceOnUse"
       id="clipPath6"><g
         id="g7"><rect
           width="980"
           height="551"
           fill="#ffffff"
           id="rect6"
           x="0"
           y="0" /></g></clipPath><clipPath
       clipPathUnits="userSpaceOnUse"
       id="clipPath7"><g
         id="g8"><rect
           width="980"
           height="551"
           fill="#ffffff"
           id="rect7"
           x="0"
           y="0" /></g></clipPath></defs><style
     id="style1">.a{fill-opacity: 0.10;}  &#10;</style><g
     id="g4"
     transform="translate(828.2969,17.875525)"
     style="fill:#00b7e8;fill-opacity:1"><path
       class="a"
       d="m 87.1,36.8 -20,20 -3.3,-3.3 20,-20.1 z"
       id="path1-5"
       style="fill:#00b7e8;fill-opacity:1" /><path
       class="a"
       d="m 93.8,43.4 -20,20.1 -3.4,-3.4 20.1,-20 z"
       id="path2-3"
       style="fill:#00b7e8;fill-opacity:1" /><path
       class="a"
       d="M 57.1,66.8 37,86.9 l -3.3,-3.4 20,-20 z"
       id="path3-5"
       style="fill:#00b7e8;fill-opacity:1" /><path
       class="a"
       d="m 63.8,73.5 -20.1,20.1 -3.3,-3.4 20,-20 z"
       id="path4"
       style="fill:#00b7e8;fill-opacity:1" /><path
       class="a"
       d="m 90.5,86.9 -20.1,-20.1 3.4,-3.3 20,20 z"
       id="path5"
       style="fill:#00b7e8;fill-opacity:1" /><path
       class="a"
       d="m 83.8,93.6 -20,-20.1 3.3,-3.3 20,20 z"
       id="path6"
       style="fill:#00b7e8;fill-opacity:1" /><path
       class="a"
       d="m 60.4,56.8 -20,-20 3.3,-3.4 20.1,20.1 z"
       id="path7"
       style="fill:#00b7e8;fill-opacity:1" /><path
       class="a"
       d="m 53.7,63.5 -20,-20.1 3.3,-3.3 20.1,20 z"
       id="path8"
       style="fill:#00b7e8;fill-opacity:1" /><path
       class="a"
       d="m 110.5,106.9 -10,-10 3.4,-3.3 10,10 z"
       id="path9"
       style="fill:#00b7e8;fill-opacity:1" /><path
       class="a"
       d="m 103.9,113.6 -10.1,-10 3.4,-3.4 10,10.1 z"
       id="path10"
       style="fill:#00b7e8;fill-opacity:1" /><path
       class="a"
       d="m 30.4,26.7 -10.1,-10 3.4,-3.3 10,10 z"
       id="path11"
       style="fill:#00b7e8;fill-opacity:1" /><path
       class="a"
       d="m 23.7,33.4 -10,-10 3.3,-3.3 10,10 z"
       id="path12"
       style="fill:#00b7e8;fill-opacity:1" /><path
       class="a"
       d="m 107.2,16.7 -10,10 -3.4,-3.3 10.1,-10 z"
       id="path13"
       style="fill:#00b7e8;fill-opacity:1" /><path
       class="a"
       d="m 113.9,23.4 -10,10 -3.4,-3.3 10,-10 z"
       id="path14"
       style="fill:#00b7e8;fill-opacity:1" /><path
       class="a"
       d="m 27,96.9 -10,10 -3.3,-3.3 10,-10 z"
       id="path15"
       style="fill:#00b7e8;fill-opacity:1" /><path
       class="a"
       d="m 33.7,103.6 -10,10 -3.4,-3.3 10.1,-10.1 z"
       id="path16"
       style="fill:#00b7e8;fill-opacity:1" /><path
       class="a"
       d="m 70.8,127.3 h -4.7 v -14.2 h 4.7 z"
       id="path17"
       style="fill:#00b7e8;fill-opacity:1" /><path
       class="a"
       d="m 61.4,127.3 h -4.7 v -14.2 h 4.7 z"
       id="path18"
       style="fill:#00b7e8;fill-opacity:1" /><path
       class="a"
       d="M 70.8,13.9 H 66.1 V -0.3 h 4.7 z"
       id="path19"
       style="fill:#00b7e8;fill-opacity:1" /><path
       class="a"
       d="M 61.4,13.9 H 56.7 V -0.3 h 4.7 z"
       id="path20"
       style="fill:#00b7e8;fill-opacity:1" /><path
       class="a"
       d="m 127.5,61.1 h -14.1 v -4.7 h 14.1 z"
       id="path21"
       style="fill:#00b7e8;fill-opacity:1" /><path
       class="a"
       d="m 127.5,70.6 h -14.1 v -4.7 h 14.1 z"
       id="path22"
       style="fill:#00b7e8;fill-opacity:1" /><path
       class="a"
       d="M 14.2,61.1 H 0 v -4.7 h 14.2 z"
       id="path23"
       style="fill:#00b7e8;fill-opacity:1" /><path
       class="a"
       d="M 14.2,70.6 H 0 v -4.7 h 14.2 z"
       id="path24"
       style="fill:#00b7e8;fill-opacity:1" /></g><text
     xml:space="preserve"
     style="font-size:53.3333px;line-height:1.55;font-family:sans-serif;writing-mode:tb-rl;direction:ltr;text-orientation:upright"
     x="887.87463"
     y="201.22002"
     id="text11"><tspan
       sodipodi:role="line"
       x="887.87463"
       y="201.22002"
       id="tspan14"
       style="font-size:53.3333px;line-height:1.55;writing-mode:tb-rl;direction:ltr;text-orientation:upright;fill:#cccccc" /></text></svg>
