<?xml version="1.0" encoding="UTF-8" standalone="no"?>
<svg
   version="1.2"
   id="star-ur"
   viewBox="0 0 130 130"
   width="130"
   height="130"
   sodipodi:docname="star.svg"
   inkscape:version="1.3 (0e150ed6c4, 2023-07-21)"
   xmlns:inkscape="http://www.inkscape.org/namespaces/inkscape"
   xmlns:sodipodi="http://sodipodi.sourceforge.net/DTD/sodipodi-0.dtd"
   xmlns="http://www.w3.org/2000/svg"
   xmlns:svg="http://www.w3.org/2000/svg">
  <defs
     id="defs24" />
  <sodipodi:namedview
     id="namedview24"
     pagecolor="#ffffff"
     bordercolor="#666666"
     borderopacity="1.0"
     inkscape:showpageshadow="2"
     inkscape:pageopacity="0.0"
     inkscape:pagecheckerboard="0"
     inkscape:deskcolor="#d1d1d1"
     inkscape:zoom="6.3461538"
     inkscape:cx="65"
     inkscape:cy="65"
     inkscape:window-width="1920"
     inkscape:window-height="1025"
     inkscape:window-x="1939"
     inkscape:window-y="0"
     inkscape:window-maximized="1"
     inkscape:current-layer="star-ur" />
  <style
     id="style1">.a{fill-opacity: 0.10;}  &#10;</style>
  <path
     class="a"
     d="m87.1 36.8l-20 20-3.3-3.3 20-20.1z"
     id="path1"
     style="fill:#ffffff;fill-opacity:1" />
  <path
     class="a"
     d="m93.8 43.4l-20 20.1-3.4-3.4 20.1-20z"
     id="path2"
     style="fill:#ffffff;fill-opacity:1" />
  <path
     class="a"
     d="m57.1 66.8l-20.1 20.1-3.3-3.4 20-20z"
     id="path3"
     style="fill:#ffffff;fill-opacity:1" />
  <path
     class="a"
     d="m63.8 73.5l-20.1 20.1-3.3-3.4 20-20z"
     id="path4"
     style="fill:#ffffff;fill-opacity:1" />
  <path
     class="a"
     d="m90.5 86.9l-20.1-20.1 3.4-3.3 20 20z"
     id="path5"
     style="fill:#ffffff;fill-opacity:1" />
  <path
     class="a"
     d="m83.8 93.6l-20-20.1 3.3-3.3 20 20z"
     id="path6"
     style="fill:#ffffff;fill-opacity:1" />
  <path
     class="a"
     d="m60.4 56.8l-20-20 3.3-3.4 20.1 20.1z"
     id="path7"
     style="fill:#ffffff;fill-opacity:1" />
  <path
     class="a"
     d="m53.7 63.5l-20-20.1 3.3-3.3 20.1 20z"
     id="path8"
     style="fill:#ffffff;fill-opacity:1" />
  <path
     class="a"
     d="m110.5 106.9l-10-10 3.4-3.3 10 10z"
     id="path9"
     style="fill:#ffffff;fill-opacity:1" />
  <path
     class="a"
     d="m103.9 113.6l-10.1-10 3.4-3.4 10 10.1z"
     id="path10"
     style="fill:#ffffff;fill-opacity:1" />
  <path
     class="a"
     d="m30.4 26.7l-10.1-10 3.4-3.3 10 10z"
     id="path11"
     style="fill:#ffffff;fill-opacity:1" />
  <path
     class="a"
     d="m23.7 33.4l-10-10 3.3-3.3 10 10z"
     id="path12"
     style="fill:#ffffff;fill-opacity:1" />
  <path
     class="a"
     d="m107.2 16.7l-10 10-3.4-3.3 10.1-10z"
     id="path13"
     style="fill:#ffffff;fill-opacity:1" />
  <path
     class="a"
     d="m113.9 23.4l-10 10-3.4-3.3 10-10z"
     id="path14"
     style="fill:#ffffff;fill-opacity:1" />
  <path
     class="a"
     d="m27 96.9l-10 10-3.3-3.3 10-10z"
     id="path15"
     style="fill:#ffffff;fill-opacity:1" />
  <path
     class="a"
     d="m33.7 103.6l-10 10-3.4-3.3 10.1-10.1z"
     id="path16"
     style="fill:#ffffff;fill-opacity:1" />
  <path
     class="a"
     d="m70.8 127.3h-4.7v-14.2h4.7z"
     id="path17"
     style="fill:#ffffff;fill-opacity:1" />
  <path
     class="a"
     d="m61.4 127.3h-4.7v-14.2h4.7z"
     id="path18"
     style="fill:#ffffff;fill-opacity:1" />
  <path
     class="a"
     d="m70.8 13.9h-4.7v-14.2h4.7z"
     id="path19"
     style="fill:#ffffff;fill-opacity:1" />
  <path
     class="a"
     d="m61.4 13.9h-4.7v-14.2h4.7z"
     id="path20"
     style="fill:#ffffff;fill-opacity:1" />
  <path
     class="a"
     d="m127.5 61.1h-14.1v-4.7h14.1z"
     id="path21"
     style="fill:#ffffff;fill-opacity:1" />
  <path
     class="a"
     d="m127.5 70.6h-14.1v-4.7h14.1z"
     id="path22"
     style="fill:#ffffff;fill-opacity:1" />
  <path
     class="a"
     d="m14.2 61.1h-14.2v-4.7h14.2z"
     id="path23"
     style="fill:#ffffff;fill-opacity:1" />
  <path
     class="a"
     d="m14.2 70.6h-14.2v-4.7h14.2z"
     id="path24"
     style="fill:#ffffff;fill-opacity:1" />
</svg>
